<svg xmlns="http://www.w3.org/2000/svg" xmlns:xlink="http://www.w3.org/1999/xlink" width="24" height="24" viewBox="0 0 24 24">
    <defs>
        <path id="a" d="M0 0h24v24H0z"/>
    </defs>
    <g fill="none" fill-rule="evenodd">
        <mask id="b" fill="#fff">
            <use xlink:href="#a"/>
        </mask>
        <g fill="#4F4F4F" mask="url(#b)">
            <path d="M11.875 10.325a1.352 1.352 0 1 0 .02 2.705 1.328 1.328 0 0 0 1.344-1.362 1.328 1.328 0 0 0-1.364-1.343"/>
            <path d="M11.844 19.08c-4.017.004-7.36-3.364-7.357-7.41.004-4.073 3.36-7.41 7.437-7.395 4.054.014 7.333 3.33 7.33 7.41a7.376 7.376 0 0 1-7.41 7.396m9.311-6.421c.926-.45 1.921-.652 2.973-.84l.001-.042-.001-.16c-1.098-.189-2.147-.404-3.11-.907-1.245-.65-1.42-1.555-.504-2.627.266-.311.581-.583.894-.85.292-.248.61-.465.903-.747-1.383.392-2.809.988-4.08-.093-1.335-1.135-.727-2.56-.227-4.077-1.237 1.136-2.438 1.928-3.977 1.224-1.434-.656-1.83-2.031-2.14-3.465-.312 1.439-.716 2.82-2.167 3.475-1.515.685-2.699-.108-3.881-.995.127.396.276.786.378 1.189.52 2.042-.823 3.53-2.9 3.195-.553-.09-1.089-.283-1.632-.428a.569.569 0 0 1-.08.097c.564.529 1.246.926 1.727 1.553.808 1.046.66 1.863-.497 2.502-.904.5-1.899.716-2.904.903a.642.642 0 0 1-.211.011c-.001.067-.003.133-.003.2v.01c.078-.024.189-.02.346.014.975.216 1.953.417 2.831.92 1.084.624 1.227 1.418.478 2.42-.486.654-1.183 1.065-1.767 1.605.03.029.057.061.079.096.7-.228 1.398-.468 2.15-.464 1.788.011 2.824 1.326 2.42 3.105-.108.473-.298.928-.507 1.561 1.236-1.111 2.448-1.962 4.01-1.22 1.483.706 1.883 2.113 2.069 3.643.155-.161.065-.377.184-.542.118-.162.107-.412.166-.621.783-2.824 3.404-3.522 5.49-1.466.105.105.204.216.318.337.156-.252-.061-.41-.132-.582-.282-.69-.488-1.388-.374-2.147.17-1.128.957-1.87 2.096-1.952a4.963 4.963 0 0 1 1.925.24c.208.068.417.254.72.092-.567-.43-1.133-.825-1.6-1.335-1.063-1.165-.882-2.144.536-2.832"/>
            <path d="M16.456 11.663c-.085-.015-.173-.018-.259-.032-1.956-.323-2.241-.964-1.181-2.644.122-.195.228-.401.341-.602h-.007l-.001-.003c-.302.19-.596.398-.911.564-1.015.534-1.88.195-2.27-.885-.092-.258-.15-.528-.276-.98-.106.373-.164.578-.224.783-.38 1.297-1.339 1.675-2.5 1.006-.146-.084-.245-.357-.483-.224-.007.014-.014.028-.026.044-.003 0-.005-.002-.008-.003.093.445.444.757.6 1.174.279.743.11 1.217-.624 1.493-.516.193-1.215.55-1.573.227-.334-.302.022-1.009.18-1.518.155-.497.424-.938.722-1.364.148-.21.316-.31.562-.28a.069.069 0 0 1 .006-.011l.016.009c-.135-.164-.073-.27.068-.417 1.59-1.642 4.982-1.644 6.559-.003.113.118.133.252.182.385l.016-.011-.008.014c.167-.026.26.073.356.194.64.804.995 1.714 1.093 2.737.03.314-.07.395-.35.347m.267.97a5.192 5.192 0 0 1-1.012 2.158c-.174.223-.32.281-.542.122l.003.01-.01.004c.035.254.017.456-.24.643-.773.563-1.62.9-2.564 1.022-.367.048-.487-.065-.368-.425.046-.143.048-.3.087-.446.361-1.348 1.4-1.752 2.593-1.029.149.09.232.373.492.235-.002-.006-.002-.013-.002-.02l.009.006c-.111-.468-.473-.803-.644-1.242-.295-.754-.132-1.187.629-1.493.279-.112.577-.191.873-.242.837-.142.863-.117.696.697m-7.001-.967c.005-1.172.991-2.16 2.159-2.165 1.16-.005 2.16.986 2.174 2.155.013 1.19-1.014 2.217-2.198 2.199-1.169-.019-2.14-1.016-2.135-2.189m1.883 4.942c-.725.149-2.721-.774-3.063-1.429-.015-.027-.01-.065-.006-.102h-.018a.185.185 0 0 1-.004-.023c-.21.031-.323-.112-.44-.255-.602-.738-.948-1.585-1.087-2.524-.048-.322-.007-.523.387-.394.02.008.043.009.064.011 2.172.29 2.412 1.056 1.305 2.687-.06.09-.24.178-.13.328.016.007.031.012.052.023v.004c.275-.143.545-.295.826-.427.552-.26 1.097-.276 1.578.146.524.46.682 1.085.723 1.75.008.128-.057.179-.187.205m.34-10.534c-3.162-.013-5.647 2.437-5.655 5.578-.009 3.126 2.447 5.62 5.54 5.63 3.143.008 5.666-2.472 5.675-5.579.008-3.094-2.482-5.615-5.56-5.629"/>
        </g>
    </g>
</svg>
