<svg xmlns="http://www.w3.org/2000/svg" width="24" height="21" viewBox="0 0 24 21">
    <g fill="none" fill-rule="evenodd">
        <path d="M-1-2h24v24H-1z"/>
        <g stroke="#4F4F4F">
            <path d="M12.144 13.428c.773-.46 1.04-1.481.593-2.28-.446-.799-1.436-1.074-2.21-.612-.773.46-1.04 1.481-.592 2.28a1.59 1.59 0 0 0 2.209.612z"/>
            <path stroke-width="1.5" d="M7.862 5.763c1.163-.692 1.563-2.228.893-3.43-.672-1.2-2.16-1.613-3.323-.92-1.164.693-1.563 2.228-.892 3.429.67 1.202 2.159 1.614 3.322.921z"/>
            <path d="M7.688 5.451l2.84 5.084"/>
            <path stroke-width="1.5" d="M5.311 15.568c-.67-1.201-2.158-1.614-3.322-.922-1.163.694-1.563 2.229-.892 3.43.672 1.202 2.158 1.614 3.322.921 1.164-.692 1.563-2.228.892-3.43z"/>
            <path d="M5.312 15.568l4.622-2.752"/>
            <path stroke-width="1.5" d="M18.172 13.298c-.247 1.364.624 2.674 1.945 2.928 1.32.255 2.59-.644 2.836-2.007.247-1.363-.624-2.674-1.945-2.929-1.32-.254-2.59.644-2.836 2.008z"/>
            <path d="M18.172 13.298l-5-.963"/>
        </g>
    </g>
</svg>
