<svg xmlns="http://www.w3.org/2000/svg" width="16" height="24" viewBox="0 0 16 24">
    <g fill="none" fill-rule="evenodd">
        <path d="M-5 0h24v24H-5z"/>
        <g fill="#4F4F4F">
            <path d="M4.606 18.948a.688.688 0 0 1-.002-.564c.034.006-.002.067.038.075.002-.091.024-.087-.028-.203-.007.02.008.091-.019.104-.096-.488-.378-1.047-.543-1.518-.192-.548-.4-.505-.732-.868.08-.044.173-.133.272-.162-.06-.047-.128-.032-.203.046-.018-.254.037-.252.174-.34-.154-.192-.096-.697.188-.736-.292-.036-.048-.65.161-.605-.186-.117-.153-.348-.057-.511.014.053-.004.11-.01.172.03-.018.053-.016.07.009.056-.25-.11-.42.062-.596-.117-.135-.12-.092.014-.252a.16.16 0 0 1-.12-.157l.131-.02c-.157-.104-.078-.05-.065-.184-.173-.072-.105-.217-.133-.438-.018-.104.152-.816.417-.496.028-.444-.075-.458.173-.852.235-.372.455-.754.691-1.15.15-.255.872-1.57 1.114-1.29-.07-.332-.206-.04-.13-.349.022-.09.116-.288.157-.376.102-.22.324-.596.471-.817.102-.157.27-.378.376-.572.09-.163.098-.377.196-.532.2-.319.167-.18.443-.343-.288-.335.385-.36.583-.354-.075-.034-.15-.04-.212-.063.288-.447.37-.556.522-1.006.032-.095.263-.455.377-.53-.209-.4.771-1.038 1.133-1.207.584-.27 1.165-.265 1.524-.698.272-.33.424-.738.877-.706.512.034.456.579.884.516-.158.333.328.333.253.486l-.007.081c.077-.113.146-.125.203-.19.233.2.486.314.902.226-.046.196.061.485.107.709a.551.551 0 0 1 .413.08c-.036.182-.676.505-.812.696-.32.447-.22.83-.314 1.276.162.213.081.577.378.75l-.149.035c0 .17-.097.707-.008.79-.568.22-.427 1.066-.708 1.502-.258.4-.436.448-.566.954-.029.113-.216.155-.225.299-.014.206.201.306.196.498 0 .006-.227.62-.256.755-.09.42-.23.815-.313 1.216-.142.694-.233 1.333-.4 1.971-.16.601-.364 1.108-.478 1.665-.086.421-.212.488-.435.945-.126.262-.28.654-.482.87-.074.078-.366.253-.393.299-.08.136.01.308-.05.442-.184.404-.563.453-.84.758-.193.215-.34.547-.442.819-.354.953-.482 1.74-.513 2.728-.007.25.028.59-.052.875-.082.293-.329.33-.134.773.008-.008-.532-.361-.629-.39-.149-.044-.034.415-.299.189-.06-.052-.085-.683-.084-.738.011-.535-.04-.82-.275-1.393-.083-.203-.09-.358-.21-.549-.233-.369-.76-.433-.988-.764.021-.01.163.063.188.072-.224-.134-.29-.23-.436-.409a.097.097 0 0 1-.005.1c-.02-.002-.106-.14-.134-.159.032.058.066.157.094.2-.395-.181-.515-.71-.89-.894M.413 12.615s-.116-.033-.131-.045c.07-.009.095-.045.152-.068-.061-.004-.105.013-.166.014.135-.113 0-.107.158-.219.03.075.049.093.086.156-.004-.19.107-.164.177-.246.008.053-.008.125-.001.19.082-.015.012-.097.064-.113.072-.017-.044.068.09.022-.004-.052-.035.02.01-.113.11.117.165.178.247.366-.361-.124-.432.3-.522.312-.128.017-.467-.108-.371-.294.106.195.447.156.347.004-.071-.032-.081.045-.14.034"/>
        </g>
    </g>
</svg>
