<svg xmlns="http://www.w3.org/2000/svg" width="22" height="17" viewBox="0 0 22 17">
    <g fill="#FFF" fill-rule="evenodd">
        <path d="M15.21 15.529H3.56a2.267 2.267 0 0 1-2.265-2.265 2.268 2.268 0 0 1 2.265-2.266c.09 0 .234.023.386.053v.595a.647.647 0 0 0 1.295 0v-1.042a4.186 4.186 0 0 1 4.144-3.489 4.185 4.185 0 0 1 4.144 3.491v1.04a.648.648 0 0 0 1.295 0v-.595c.152-.03.297-.053.386-.053a2.268 2.268 0 0 1 2.265 2.266 2.267 2.267 0 0 1-2.265 2.265zM13.268 5.173a3.24 3.24 0 0 1 3.236 3.237c0 .501-.117.987-.335 1.429a3.538 3.538 0 0 0-.96-.135c-.163 0-.36.026-.546.059a5.461 5.461 0 0 0-3.627-3.689 3.238 3.238 0 0 1 2.232-.901zm4.063 5.239c.306-.62.468-1.301.468-2.002a4.536 4.536 0 0 0-4.531-4.531 4.541 4.541 0 0 0-3.72 1.948c-.055-.001-.108-.006-.163-.006a5.477 5.477 0 0 0-5.28 3.942 3.304 3.304 0 0 0-.545-.059A3.564 3.564 0 0 0 0 13.264a3.563 3.563 0 0 0 3.56 3.559h11.65a3.563 3.563 0 0 0 3.56-3.559 3.552 3.552 0 0 0-1.44-2.852zM13.268 2.585c.357 0 .647-.29.647-.647V.643a.647.647 0 0 0-1.294 0v1.295c0 .357.29.647.647.647M19.74 7.762a.648.648 0 1 0 0 1.294h1.294a.647.647 0 1 0 0-1.294H19.74zM17.844 4.48a.644.644 0 0 0 .458-.19l.915-.915a.646.646 0 1 0-.915-.915l-.916.915a.648.648 0 0 0 .458 1.105M8.233 4.29a.647.647 0 1 0 .915-.915l-.915-.914a.646.646 0 1 0-.915.914l.915.915z"/>
    </g>
</svg>
